HIERARCHY
ROOT joint_Root
{
	OFFSET 0.0 0.0 0.0
	CHANNELS 6 Xposition Yposition Zposition Zrotation Xrotation Yrotation 
	JOINT Hips
	{
		OFFSET -0.726466 93.3139 -2.00062
		CHANNELS 6 Xposition Yposition Zposition Zrotation Xrotation Yrotation 
		JOINT Spine
		{
			OFFSET 15.7357 0.0 0.0
			CHANNELS 6 Xposition Yposition Zposition Zrotation Xrotation Yrotation 
			JOINT Chest
			{
				OFFSET 8.98455 -0.406207 0.0
				CHANNELS 6 Xposition Yposition Zposition Zrotation Xrotation Yrotation 
				JOINT Neck
				{
					OFFSET 16.3773 0.0 0.0
					CHANNELS 6 Xposition Yposition Zposition Zrotation Xrotation Yrotation 
					JOINT Head
					{
						OFFSET 6.45672 0.0 0.0
						CHANNELS 6 Xposition Yposition Zposition Zrotation Xrotation Yrotation 
						End Site
						{
							OFFSET 0.0 0.0 0.0
						}
					}
				}
				JOINT Shoulder_L
				{
					OFFSET 12.9942 -0.242716 4.98039
					CHANNELS 6 Xposition Yposition Zposition Zrotation Xrotation Yrotation 
					JOINT UpperArm_L
					{
						OFFSET 5.34809 0.0 0.0
						CHANNELS 6 Xposition Yposition Zposition Zrotation Xrotation Yrotation 
						JOINT LowerArm_L
						{
							OFFSET 24.3286 1.87007e-05 0.0
							CHANNELS 6 Xposition Yposition Zposition Zrotation Xrotation Yrotation 
							JOINT Hand_L
							{
								OFFSET 22.2916 0.0 0.0
								CHANNELS 6 Xposition Yposition Zposition Zrotation Xrotation Yrotation 
								End Site
								{
									OFFSET 0.0 0.0 0.0
								}
							}
						}
					}
				}
				JOINT Shoulder_R
				{
					OFFSET 12.9945 -0.242716 -4.98039
					CHANNELS 6 Xposition Yposition Zposition Zrotation Xrotation Yrotation 
					JOINT UpperArm_R
					{
						OFFSET -5.34813 0.0 0.0
						CHANNELS 6 Xposition Yposition Zposition Zrotation Xrotation Yrotation 
						JOINT LowerArm_R
						{
							OFFSET -24.3289 0.000322201 0.0
							CHANNELS 6 Xposition Yposition Zposition Zrotation Xrotation Yrotation 
							JOINT Hand_R
							{
								OFFSET -22.2915 -0.000108084 0.0
								CHANNELS 6 Xposition Yposition Zposition Zrotation Xrotation Yrotation 
								End Site
								{
									OFFSET 0.0 0.0 0.0
								}
							}
						}
					}
				}
			}
		}
		JOINT UpperLeg_L
		{
			OFFSET -2.19248 -6.46944 0.0
			CHANNELS 6 Xposition Yposition Zposition Zrotation Xrotation Yrotation 
			JOINT LowerLeg_L
			{
				OFFSET 39.0811 0.0 -1.23785e-05
				CHANNELS 6 Xposition Yposition Zposition Zrotation Xrotation Yrotation 
				JOINT Foot_L
				{
					OFFSET 40.9854 0.0 -1.26872e-05
					CHANNELS 6 Xposition Yposition Zposition Zrotation Xrotation Yrotation 
					JOINT Toes_L
					{
						OFFSET 11.7543 0.0 0.0
						CHANNELS 6 Xposition Yposition Zposition Zrotation Xrotation Yrotation 
						End Site
						{
							OFFSET 0.0 0.0 0.0
						}
					}
				}
			}
		}
		JOINT UpperLeg_R
		{
			OFFSET -2.19251 6.46944 0.0
			CHANNELS 6 Xposition Yposition Zposition Zrotation Xrotation Yrotation 
			JOINT LowerLeg_R
			{
				OFFSET -39.0811 -0.00228153 -0.0401928
				CHANNELS 6 Xposition Yposition Zposition Zrotation Xrotation Yrotation 
				JOINT Foot_R
				{
					OFFSET -40.9854 0.0 0.0
					CHANNELS 6 Xposition Yposition Zposition Zrotation Xrotation Yrotation 
					JOINT Toes_R
					{
						OFFSET -11.7543 0.0 0.0
						CHANNELS 6 Xposition Yposition Zposition Zrotation Xrotation Yrotation 
						End Site
						{
							OFFSET 0.0 0.0 0.0
						}
					}
				}
			}
		}
	}
}
MOTION
Frames:	8
Frame Time:	0.0333333
0.000000 0.000000 0.000000 0.000000 0.000000 -0.000000 131.414000 90.674200 -120.794000 88.245000 4.382020 2.142040 15.735700 0.000005 -0.000001 83.956300 81.617400 -83.322200 8.984550 -0.406207 -0.000000 8.919110 -1.749690 1.403640 16.377300 -0.000001 -0.000001 6.723460 -2.837330 -0.487578 6.456720 -0.000001 -0.000000 0.374651 -2.290800 4.100680 12.994200 -0.242716 4.980390 -88.207300 -4.598470 -68.674900 5.348090 -0.000007 -0.000001 -54.554300 38.221100 -18.817300 24.328600 0.000019 0.000005 6.479200 6.030450 -47.230100 22.291600 -0.000001 0.000005 2.777930 5.602670 -11.503500 12.994500 -0.242716 -4.980390 88.331500 3.837120 -66.478500 -5.348130 -0.000001 -0.000004 -53.713200 34.453300 -20.582400 -24.328900 0.000322 -0.000009 1.416220 1.755250 -38.939300 -22.291500 -0.000108 -0.000004 1.476460 5.571330 -9.756230 -2.192480 -6.469440 -0.000000 -171.889000 -11.675600 -17.929500 39.081100 -0.000007 -0.000012 0.124632 -0.069870 60.723000 40.985400 -0.000006 -0.000013 -1.379720 1.102970 -60.694500 11.754300 -0.000000 0.000003 -0.005424 -0.065524 -19.243100 -2.192510 6.469440 -0.000001 -173.902000 16.922800 165.449000 -39.081100 -0.002282 -0.040193 0.032850 -0.041800 35.266600 -40.985400 0.000008 0.000006 8.806120 -3.177770 -66.842800 -11.754300 -0.000006 -0.000006 -0.002022 -0.028990 -17.751900
0.000000 0.000000 0.000000 0.000000 0.000000 -0.000000 131.677000 91.392200 -118.233000 88.836400 2.440380 2.358240 15.735700 0.000005 -0.000001 88.510600 81.638300 -88.246500 8.984550 -0.406207 -0.000000 8.952950 -0.429677 0.561447 16.377300 -0.000001 -0.000001 6.573490 -2.473440 -0.606324 6.456720 -0.000001 -0.000000 0.368894 -2.943430 3.838060 12.994200 -0.242716 4.980390 -88.161800 -4.476410 -67.646400 5.348090 -0.000007 -0.000001 -57.395400 38.417600 -14.466200 24.328600 0.000019 0.000005 6.667840 6.625440 -45.377100 22.291600 -0.000001 0.000005 2.633110 5.603280 -11.538800 12.994500 -0.242716 -4.980390 88.549200 3.517150 -67.567900 -5.348130 -0.000001 -0.000004 -50.868300 34.297400 -26.081400 -24.328900 0.000322 -0.000009 0.974347 1.126210 -40.906900 -22.291500 -0.000108 -0.000004 1.436500 5.565470 -9.458560 -2.192480 -6.469440 -0.000000 -173.935000 -13.771500 -20.315200 39.081100 -0.000007 -0.000012 0.088037 -0.065328 53.420700 40.985400 -0.000006 -0.000013 -1.913180 -0.637817 -61.259900 11.754300 -0.000000 0.000003 -0.004897 -0.060475 -19.037300 -2.192510 6.469440 -0.000001 -175.237000 15.607800 169.604000 -39.081100 -0.002282 -0.040193 0.021258 -0.029158 31.629700 -40.985400 0.000008 0.000006 8.392890 -2.418700 -66.777300 -11.754300 -0.000006 -0.000006 -0.002550 -0.035405 -18.012800
0.000000 0.000000 0.000000 0.000000 0.000000 -0.000000 131.933000 91.712000 -115.739000 89.079300 0.637602 2.446040 15.735700 0.000005 -0.000001 92.598800 81.610800 -92.540100 8.984550 -0.406207 -0.000000 8.995270 0.757403 0.057741 16.377300 -0.000001 -0.000001 6.370990 -2.070310 -0.847013 6.456720 -0.000001 -0.000000 0.314089 -3.495970 3.607440 12.994200 -0.242716 4.980390 -88.182500 -4.183600 -66.491200 5.348090 -0.000007 -0.000001 -59.999900 37.951800 -10.104600 24.328600 0.000019 0.000005 6.812510 7.072440 -44.135300 22.291600 -0.000001 0.000005 2.345540 5.598230 -11.236700 12.994500 -0.242716 -4.980390 88.804300 3.035740 -68.490700 -5.348130 -0.000001 -0.000004 -47.657500 33.780000 -31.817600 -24.328900 0.000322 -0.000009 0.662702 0.723402 -42.553400 -22.291500 -0.000108 -0.000004 1.723240 5.569260 -9.650850 -2.192480 -6.469440 -0.000000 -175.544000 -15.374400 -22.395100 39.081100 -0.000007 -0.000012 0.054360 -0.054603 44.870900 40.985400 -0.000006 -0.000013 -1.755780 -3.057340 -60.845600 11.754300 -0.000000 0.000003 -0.005263 -0.063995 -19.180800 -2.192510 6.469440 -0.000001 -176.080000 13.881200 172.879000 -39.081100 -0.002282 -0.040193 0.015508 -0.021911 29.116700 -40.985400 0.000008 0.000006 7.725800 -2.231490 -67.130800 -11.754300 -0.000006 -0.000006 -0.002649 -0.036566 -18.060100
0.000000 0.000000 0.000000 0.000000 0.000000 -0.000000 132.167000 91.684900 -113.171000 88.854800 -0.996756 2.547590 15.735700 0.000005 -0.000001 96.186400 81.503600 -96.135300 8.984550 -0.406207 -0.000000 9.130410 1.821970 -0.043302 16.377300 -0.000001 -0.000001 6.248400 -1.586020 -1.113610 6.456720 -0.000001 -0.000000 0.130982 -3.985430 3.348480 12.994200 -0.242716 4.980390 -88.242900 -3.829550 -65.329400 5.348090 -0.000007 -0.000001 -62.405600 37.003100 -5.839900 24.328600 0.000019 0.000005 6.411970 6.870360 -43.211300 22.291600 -0.000001 0.000005 2.181410 5.596510 -11.134800 12.994500 -0.242716 -4.980390 89.046000 2.534920 -69.369400 -5.348130 -0.000001 -0.000004 -44.393700 32.673900 -37.220800 -24.328900 0.000322 -0.000009 0.267979 0.276151 -44.286000 -22.291500 -0.000108 -0.000004 1.804090 5.567470 -9.559650 -2.192480 -6.469440 -0.000000 -176.345000 -16.498600 -23.578800 39.081100 -0.000007 -0.000012 0.029572 -0.041799 35.277600 40.985400 -0.000006 -0.000013 -1.616850 -3.489920 -60.670200 11.754300 -0.000000 0.000003 -0.005260 -0.063965 -19.179500 -2.192510 6.469440 -0.000001 -176.399000 12.262600 175.703000 -39.081100 -0.002282 -0.040193 0.013096 -0.018768 27.545000 -40.985400 0.000008 0.000006 7.374340 -2.166540 -67.992200 -11.754300 -0.000006 -0.000006 -0.003364 -0.044651 -18.389100
0.000000 0.000000 0.000000 0.000000 0.000000 -0.000000 132.398000 91.335600 -110.452000 88.241300 -2.721360 2.666590 15.735700 0.000005 -0.000001 100.057000 81.308600 -99.890700 8.984550 -0.406207 -0.000000 9.354910 3.020850 0.085431 16.377300 -0.000001 -0.000001 6.014490 -1.224810 -1.196460 6.456720 -0.000001 -0.000000 0.225961 -4.433370 3.094420 12.994200 -0.242716 4.980390 -88.235400 -3.694130 -64.444700 5.348090 -0.000007 -0.000001 -64.876300 35.497400 -1.782650 24.328600 0.000019 0.000005 6.164370 6.777620 -42.464000 22.291600 -0.000001 0.000005 2.038460 5.595600 -11.082700 12.994500 -0.242716 -4.980390 89.241200 2.090660 -70.048000 -5.348130 -0.000001 -0.000004 -41.287900 31.151000 -42.183300 -24.328900 0.000322 -0.000009 -0.147690 -0.143185 -45.651800 -22.291500 -0.000108 -0.000004 1.879890 5.566440 -9.507560 -2.192480 -6.469440 -0.000000 -176.441000 -17.505000 -23.934700 39.081100 -0.000007 -0.000012 0.014307 -0.030414 25.192300 40.985400 -0.000006 -0.000013 -1.688920 -2.467910 -60.766000 11.754300 -0.000000 0.000003 -0.005594 -0.067112 -19.307800 -2.192510 6.469440 -0.000001 -176.390000 10.824800 178.156000 -39.081100 -0.002282 -0.040193 0.011791 -0.016673 26.965700 -40.985400 0.000008 0.000006 6.883960 -1.867620 -69.443000 -11.754300 -0.000006 -0.000006 -0.003178 -0.042599 -18.305600
0.000000 0.000000 0.000000 0.000000 0.000000 -0.000000 132.670000 90.736200 -107.446000 87.453500 -4.623930 3.072510 15.735700 0.000005 -0.000001 103.969000 81.007300 -103.652000 8.984550 -0.406207 -0.000000 9.695940 4.321020 0.266694 16.377300 -0.000001 -0.000001 5.929610 -0.887774 -1.205450 6.456720 -0.000001 -0.000000 0.355393 -4.756450 2.964810 12.994200 -0.242716 4.980390 -88.099700 -3.857170 -63.747100 5.348090 -0.000007 -0.000001 -67.446400 33.739000 2.031020 24.328600 0.000019 0.000005 6.009520 6.831830 -41.508000 22.291600 -0.000001 0.000005 2.077870 5.593760 -10.975600 12.994500 -0.242716 -4.980390 89.414900 1.656650 -70.545700 -5.348130 -0.000001 -0.000004 -38.871600 29.526500 -46.428000 -24.328900 0.000322 -0.000009 -0.085043 -0.080152 -46.306100 -22.291500 -0.000108 -0.000004 1.982090 5.567900 -9.581010 -2.192480 -6.469440 -0.000000 -176.230000 -18.920200 -23.462600 39.081100 -0.000007 -0.000012 0.006887 -0.024556 15.667700 40.985400 -0.000006 -0.000013 -2.234990 -2.026310 -60.920700 11.754300 -0.000000 0.000003 -0.005812 -0.069129 -19.390100 -2.192510 6.469440 -0.000001 -176.501000 9.859850 -179.143000 -39.081100 -0.002282 -0.040193 0.009734 -0.012599 27.023800 -40.985400 0.000008 0.000006 6.575210 -1.022370 -71.421100 -11.754300 -0.000006 -0.000006 -0.067597 -0.116755 -18.345000
0.000000 0.000000 0.000000 0.000000 0.000000 -0.000000 133.032000 89.959200 -104.133000 86.827300 -6.554770 3.514530 15.735700 0.000005 -0.000001 107.520000 80.611900 -107.119000 8.984550 -0.406207 -0.000000 10.155500 5.624010 0.300630 16.377300 -0.000001 -0.000001 5.872190 -0.655241 -1.183410 6.456720 -0.000001 -0.000000 0.312992 -4.915780 2.911100 12.994200 -0.242716 4.980390 -87.941800 -4.110080 -63.369600 5.348090 -0.000007 -0.000001 -69.787100 31.701100 5.170570 24.328600 0.000019 0.000005 6.098180 7.199620 -40.446500 22.291600 -0.000001 0.000005 1.953420 5.589030 -10.707300 12.994500 -0.242716 -4.980390 89.544600 1.309700 -70.827300 -5.348130 -0.000001 -0.000004 -37.243800 27.763400 -50.088500 -24.328900 0.000322 -0.000009 0.201484 0.194119 -46.234700 -22.291500 -0.000108 -0.000004 1.892190 5.566570 -9.513650 -2.192480 -6.469440 -0.000000 -176.521000 -21.172600 -23.095000 39.081100 -0.000007 -0.000012 0.004004 -0.027451 8.299970 40.985400 -0.000006 -0.000013 -2.721980 -3.083440 -60.628500 11.754300 -0.000000 0.000003 -0.006699 -0.077066 -19.713900 -2.192510 6.469440 -0.000001 -177.108000 9.226720 -176.261000 -39.081100 -0.002282 -0.040193 0.001808 0.002909 27.270200 -40.985400 0.000008 0.000006 6.022800 0.338139 -73.657300 -11.754300 -0.000006 -0.000006 -0.742444 -0.896247 -18.891800
0.000000 0.000000 0.000000 0.000000 0.000000 -0.000000 133.518000 89.063600 -100.531000 86.640100 -8.175030 3.852710 15.735700 0.000005 -0.000001 109.892000 80.290900 -109.585000 8.984550 -0.406207 -0.000000 10.526600 6.568740 0.008159 16.377300 -0.000001 -0.000001 5.892920 -0.473286 -1.143390 6.456720 -0.000001 -0.000000 0.170976 -4.937130 2.991600 12.994200 -0.242716 4.980390 -87.845600 -4.269980 -63.194900 5.348090 -0.000007 -0.000001 -71.536100 30.045100 7.738480 24.328600 0.000019 0.000005 6.208520 7.601600 -39.431900 22.291600 -0.000001 0.000005 2.121750 5.586030 -10.540700 12.994500 -0.242716 -4.980390 89.600100 1.169140 -71.117700 -5.348130 -0.000001 -0.000004 -36.523400 26.185100 -52.825700 -24.328900 0.000322 -0.000009 0.629808 0.615113 -45.733500 -22.291500 -0.000108 -0.000004 2.016020 5.567090 -9.540220 -2.192480 -6.469440 -0.000000 -177.379000 -23.147000 -24.406600 39.081100 -0.000007 -0.000012 0.001751 -0.014945 6.685900 40.985400 -0.000006 -0.000013 -2.616190 -5.180630 -61.479200 11.754300 -0.000000 0.000003 -0.007232 -0.081653 -19.901100 -2.192510 6.469440 -0.000001 -178.641000 9.353790 -173.290000 -39.081100 -0.002282 -0.040193 -0.016224 0.037536 27.489800 -40.985400 0.000008 0.000006 5.441180 2.330900 -75.980600 -11.754300 -0.000006 -0.000006 -1.432320 -1.697600 -19.322800
